<svg xmlns="http://www.w3.org/2000/svg" version="1.1" xmlns:xlink="http://www.w3.org/1999/xlink" xmlns:svgjs="http://svgjs.dev/svgjs" viewBox="0 0 800 800"><g fill="none" stroke-width="3" stroke="#6366f1" stroke-linecap="round"><line x1="344" y1="400" x2="456" y2="400" transform="rotate(0, 400, 400)" opacity="0.16"></line><line x1="37" y1="400" x2="763" y2="400" transform="rotate(4, 400, 400)" opacity="0.50"></line><line x1="259.5" y1="400" x2="540.5" y2="400" transform="rotate(8, 400, 400)" opacity="0.67"></line><line x1="682" y1="400" x2="118" y2="400" transform="rotate(12, 400, 400)" opacity="0.64"></line><line x1="457.5" y1="400" x2="342.5" y2="400" transform="rotate(16, 400, 400)" opacity="0.70"></line><line x1="687.5" y1="400" x2="112.5" y2="400" transform="rotate(20, 400, 400)" opacity="0.65"></line><line x1="73" y1="400" x2="727" y2="400" transform="rotate(24, 400, 400)" opacity="0.32"></line><line x1="487" y1="400" x2="313" y2="400" transform="rotate(28, 400, 400)" opacity="0.85"></line><line x1="246.5" y1="400" x2="553.5" y2="400" transform="rotate(32, 400, 400)" opacity="0.31"></line><line x1="24.5" y1="400" x2="775.5" y2="400" transform="rotate(36, 400, 400)" opacity="0.85"></line><line x1="338.5" y1="400" x2="461.5" y2="400" transform="rotate(40, 400, 400)" opacity="0.86"></line><line x1="536.5" y1="400" x2="263.5" y2="400" transform="rotate(44, 400, 400)" opacity="0.07"></line><line x1="416" y1="400" x2="384" y2="400" transform="rotate(48, 400, 400)" opacity="0.88"></line><line x1="743.5" y1="400" x2="56.5" y2="400" transform="rotate(52, 400, 400)" opacity="0.87"></line><line x1="681" y1="400" x2="119" y2="400" transform="rotate(56, 400, 400)" opacity="0.39"></line><line x1="335" y1="400" x2="465" y2="400" transform="rotate(60, 400, 400)" opacity="0.39"></line><line x1="412" y1="400" x2="388" y2="400" transform="rotate(64, 400, 400)" opacity="0.80"></line><line x1="426.5" y1="400" x2="373.5" y2="400" transform="rotate(68, 400, 400)" opacity="0.50"></line><line x1="254" y1="400" x2="546" y2="400" transform="rotate(72, 400, 400)" opacity="0.59"></line><line x1="95" y1="400" x2="705" y2="400" transform="rotate(76, 400, 400)" opacity="0.55"></line><line x1="411" y1="400" x2="389" y2="400" transform="rotate(80, 400, 400)" opacity="0.91"></line><line x1="741" y1="400" x2="59" y2="400" transform="rotate(84, 400, 400)" opacity="0.60"></line><line x1="76" y1="400" x2="724" y2="400" transform="rotate(88, 400, 400)" opacity="0.39"></line><line x1="195" y1="400" x2="605" y2="400" transform="rotate(92, 400, 400)" opacity="0.96"></line><line x1="492.5" y1="400" x2="307.5" y2="400" transform="rotate(96, 400, 400)" opacity="0.18"></line><line x1="227" y1="400" x2="573" y2="400" transform="rotate(100, 400, 400)" opacity="0.41"></line><line x1="250.5" y1="400" x2="549.5" y2="400" transform="rotate(104, 400, 400)" opacity="0.72"></line><line x1="280.5" y1="400" x2="519.5" y2="400" transform="rotate(108, 400, 400)" opacity="0.90"></line><line x1="417" y1="400" x2="383" y2="400" transform="rotate(112, 400, 400)" opacity="0.87"></line><line x1="521" y1="400" x2="279" y2="400" transform="rotate(116, 400, 400)" opacity="0.38"></line><line x1="663.5" y1="400" x2="136.5" y2="400" transform="rotate(120, 400, 400)" opacity="0.33"></line><line x1="729.5" y1="400" x2="70.5" y2="400" transform="rotate(124, 400, 400)" opacity="0.11"></line><line x1="250" y1="400" x2="550" y2="400" transform="rotate(128, 400, 400)" opacity="0.81"></line><line x1="594.5" y1="400" x2="205.5" y2="400" transform="rotate(132, 400, 400)" opacity="0.13"></line><line x1="614.5" y1="400" x2="185.5" y2="400" transform="rotate(136, 400, 400)" opacity="0.67"></line><line x1="545.5" y1="400" x2="254.5" y2="400" transform="rotate(140, 400, 400)" opacity="0.41"></line><line x1="643.5" y1="400" x2="156.5" y2="400" transform="rotate(144, 400, 400)" opacity="0.07"></line><line x1="627.5" y1="400" x2="172.5" y2="400" transform="rotate(148, 400, 400)" opacity="0.31"></line><line x1="113.5" y1="400" x2="686.5" y2="400" transform="rotate(152, 400, 400)" opacity="0.83"></line><line x1="659" y1="400" x2="141" y2="400" transform="rotate(156, 400, 400)" opacity="0.50"></line><line x1="719" y1="400" x2="81" y2="400" transform="rotate(160, 400, 400)" opacity="0.21"></line><line x1="456" y1="400" x2="344" y2="400" transform="rotate(164, 400, 400)" opacity="0.58"></line><line x1="680" y1="400" x2="120" y2="400" transform="rotate(168, 400, 400)" opacity="0.35"></line><line x1="404" y1="400" x2="396" y2="400" transform="rotate(172, 400, 400)" opacity="0.48"></line><line x1="577" y1="400" x2="223" y2="400" transform="rotate(176, 400, 400)" opacity="0.10"></line><line x1="430" y1="400" x2="370" y2="400" transform="rotate(180, 400, 400)" opacity="0.43"></line><line x1="414" y1="400" x2="386" y2="400" transform="rotate(184, 400, 400)" opacity="0.71"></line><line x1="168" y1="400" x2="632" y2="400" transform="rotate(188, 400, 400)" opacity="0.82"></line><line x1="744.5" y1="400" x2="55.5" y2="400" transform="rotate(192, 400, 400)" opacity="0.71"></line><line x1="463" y1="400" x2="337" y2="400" transform="rotate(196, 400, 400)" opacity="0.67"></line><line x1="405" y1="400" x2="395" y2="400" transform="rotate(200, 400, 400)" opacity="0.59"></line><line x1="619.5" y1="400" x2="180.5" y2="400" transform="rotate(204, 400, 400)" opacity="0.42"></line><line x1="490.5" y1="400" x2="309.5" y2="400" transform="rotate(208, 400, 400)" opacity="0.93"></line><line x1="501" y1="400" x2="299" y2="400" transform="rotate(212, 400, 400)" opacity="0.28"></line><line x1="96.5" y1="400" x2="703.5" y2="400" transform="rotate(216, 400, 400)" opacity="0.45"></line><line x1="685.5" y1="400" x2="114.5" y2="400" transform="rotate(220, 400, 400)" opacity="0.35"></line><line x1="286.5" y1="400" x2="513.5" y2="400" transform="rotate(224, 400, 400)" opacity="0.95"></line><line x1="395" y1="400" x2="405" y2="400" transform="rotate(228, 400, 400)" opacity="0.27"></line><line x1="590.5" y1="400" x2="209.5" y2="400" transform="rotate(232, 400, 400)" opacity="0.68"></line><line x1="484" y1="400" x2="316" y2="400" transform="rotate(236, 400, 400)" opacity="0.52"></line><line x1="235" y1="400" x2="565" y2="400" transform="rotate(240, 400, 400)" opacity="0.60"></line><line x1="516" y1="400" x2="284" y2="400" transform="rotate(244, 400, 400)" opacity="0.39"></line><line x1="391.5" y1="400" x2="408.5" y2="400" transform="rotate(248, 400, 400)" opacity="0.50"></line><line x1="170" y1="400" x2="630" y2="400" transform="rotate(252, 400, 400)" opacity="0.45"></line><line x1="587.5" y1="400" x2="212.5" y2="400" transform="rotate(256, 400, 400)" opacity="0.87"></line><line x1="491.5" y1="400" x2="308.5" y2="400" transform="rotate(260, 400, 400)" opacity="0.76"></line><line x1="365" y1="400" x2="435" y2="400" transform="rotate(264, 400, 400)" opacity="0.35"></line><line x1="659" y1="400" x2="141" y2="400" transform="rotate(268, 400, 400)" opacity="0.75"></line><line x1="482" y1="400" x2="318" y2="400" transform="rotate(272, 400, 400)" opacity="0.60"></line><line x1="201" y1="400" x2="599" y2="400" transform="rotate(276, 400, 400)" opacity="0.25"></line><line x1="413" y1="400" x2="387" y2="400" transform="rotate(280, 400, 400)" opacity="0.68"></line><line x1="587" y1="400" x2="213" y2="400" transform="rotate(284, 400, 400)" opacity="0.12"></line><line x1="106" y1="400" x2="694" y2="400" transform="rotate(288, 400, 400)" opacity="0.89"></line><line x1="95.5" y1="400" x2="704.5" y2="400" transform="rotate(292, 400, 400)" opacity="0.41"></line><line x1="361" y1="400" x2="439" y2="400" transform="rotate(296, 400, 400)" opacity="0.89"></line><line x1="46.5" y1="400" x2="753.5" y2="400" transform="rotate(300, 400, 400)" opacity="0.94"></line><line x1="267" y1="400" x2="533" y2="400" transform="rotate(304, 400, 400)" opacity="0.45"></line><line x1="406" y1="400" x2="394" y2="400" transform="rotate(308, 400, 400)" opacity="0.14"></line><line x1="368.5" y1="400" x2="431.5" y2="400" transform="rotate(312, 400, 400)" opacity="0.52"></line><line x1="513.5" y1="400" x2="286.5" y2="400" transform="rotate(316, 400, 400)" opacity="0.93"></line><line x1="576.5" y1="400" x2="223.5" y2="400" transform="rotate(320, 400, 400)" opacity="0.54"></line><line x1="36.5" y1="400" x2="763.5" y2="400" transform="rotate(324, 400, 400)" opacity="0.71"></line><line x1="452.5" y1="400" x2="347.5" y2="400" transform="rotate(328, 400, 400)" opacity="0.36"></line><line x1="424" y1="400" x2="376" y2="400" transform="rotate(332, 400, 400)" opacity="0.82"></line><line x1="529" y1="400" x2="271" y2="400" transform="rotate(336, 400, 400)" opacity="0.27"></line><line x1="335.5" y1="400" x2="464.5" y2="400" transform="rotate(340, 400, 400)" opacity="0.87"></line><line x1="217.5" y1="400" x2="582.5" y2="400" transform="rotate(344, 400, 400)" opacity="0.27"></line><line x1="121.5" y1="400" x2="678.5" y2="400" transform="rotate(348, 400, 400)" opacity="0.25"></line></g></svg>